# xmcd
#
# Track frame offsets:
#	150
#	14010
#	22702
#	34000
#	44255
#	54975
#	70337
#	85007
#	96070
#	100860
#	115337
#	123867
#	132115
#	144500
#
# Disc length: 2050 seconds
#
# Revision: 0
# Processed by: cddbd v1.4PL0 Copyright (c) Steve Scherf et al.
# Submitted via: EZCDDA 4.3.3.2
#
DISCID=ad08000e
DTITLE=Fats Domino - Blue Monday
DYEAR=1900
DGENRE=
TTITLE0=Blueberry Hill
TTITLE1=I'm Ready
TTITLE2=Ain't it a shame
TTITLE3=My Girl Josephine
TTITLE4=Blue Monday
TTITLE5=Jambalaya
TTITLE6=I'm in the mood for love
TTITLE7=I want to walk you home
TTITLE8=Whole lotta loving
TTITLE9=I'm in love again
TTITLE10=Be my guest
TTITLE11=Red sails in the sunset
TTITLE12=Goin' Home
TTITLE13=Lady Madonna
EXTD=
EXTT0=
EXTT1=
EXTT2=
EXTT3=
EXTT4=
EXTT5=
EXTT6=
EXTT7=
EXTT8=
EXTT9=
EXTT10=
EXTT11=
EXTT12=
EXTT13=
PLAYORDER=
